HIERARCHY
ROOT joint_Root
{
	OFFSET 0.0 0.0 0.0
	CHANNELS 6 Xposition Yposition Zposition Zrotation Xrotation Yrotation 
	JOINT Hips
	{
		OFFSET -17.1583 93.1646 452.98
		CHANNELS 6 Xposition Yposition Zposition Zrotation Xrotation Yrotation 
		JOINT Spine
		{
			OFFSET 15.7357 0.0 0.0
			CHANNELS 6 Xposition Yposition Zposition Zrotation Xrotation Yrotation 
			JOINT Chest
			{
				OFFSET 8.98455 -0.406207 0.0
				CHANNELS 6 Xposition Yposition Zposition Zrotation Xrotation Yrotation 
				JOINT Neck
				{
					OFFSET 16.3773 0.0 0.0
					CHANNELS 6 Xposition Yposition Zposition Zrotation Xrotation Yrotation 
					JOINT Head
					{
						OFFSET 6.45672 0.0 0.0
						CHANNELS 6 Xposition Yposition Zposition Zrotation Xrotation Yrotation 
						End Site
						{
							OFFSET 0.0 0.0 0.0
						}
					}
				}
				JOINT Shoulder_L
				{
					OFFSET 12.9942 -0.242716 4.98039
					CHANNELS 6 Xposition Yposition Zposition Zrotation Xrotation Yrotation 
					JOINT UpperArm_L
					{
						OFFSET 5.34809 0.0 0.0
						CHANNELS 6 Xposition Yposition Zposition Zrotation Xrotation Yrotation 
						JOINT LowerArm_L
						{
							OFFSET 24.3286 1.87007e-05 0.0
							CHANNELS 6 Xposition Yposition Zposition Zrotation Xrotation Yrotation 
							JOINT Hand_L
							{
								OFFSET 22.2916 0.0 0.0
								CHANNELS 6 Xposition Yposition Zposition Zrotation Xrotation Yrotation 
								End Site
								{
									OFFSET 0.0 0.0 0.0
								}
							}
						}
					}
				}
				JOINT Shoulder_R
				{
					OFFSET 12.9945 -0.242716 -4.98039
					CHANNELS 6 Xposition Yposition Zposition Zrotation Xrotation Yrotation 
					JOINT UpperArm_R
					{
						OFFSET -5.34813 0.0 0.0
						CHANNELS 6 Xposition Yposition Zposition Zrotation Xrotation Yrotation 
						JOINT LowerArm_R
						{
							OFFSET -24.3289 0.000322201 0.0
							CHANNELS 6 Xposition Yposition Zposition Zrotation Xrotation Yrotation 
							JOINT Hand_R
							{
								OFFSET -22.2915 -0.000108084 0.0
								CHANNELS 6 Xposition Yposition Zposition Zrotation Xrotation Yrotation 
								End Site
								{
									OFFSET 0.0 0.0 0.0
								}
							}
						}
					}
				}
			}
		}
		JOINT UpperLeg_L
		{
			OFFSET -2.19248 -6.46944 0.0
			CHANNELS 6 Xposition Yposition Zposition Zrotation Xrotation Yrotation 
			JOINT LowerLeg_L
			{
				OFFSET 39.0811 0.0 -1.23785e-05
				CHANNELS 6 Xposition Yposition Zposition Zrotation Xrotation Yrotation 
				JOINT Foot_L
				{
					OFFSET 40.9854 0.0 -1.26872e-05
					CHANNELS 6 Xposition Yposition Zposition Zrotation Xrotation Yrotation 
					JOINT Toes_L
					{
						OFFSET 11.7543 0.0 0.0
						CHANNELS 6 Xposition Yposition Zposition Zrotation Xrotation Yrotation 
						End Site
						{
							OFFSET 0.0 0.0 0.0
						}
					}
				}
			}
		}
		JOINT UpperLeg_R
		{
			OFFSET -2.19251 6.46944 0.0
			CHANNELS 6 Xposition Yposition Zposition Zrotation Xrotation Yrotation 
			JOINT LowerLeg_R
			{
				OFFSET -39.0811 -0.00228153 -0.0401928
				CHANNELS 6 Xposition Yposition Zposition Zrotation Xrotation Yrotation 
				JOINT Foot_R
				{
					OFFSET -40.9854 0.0 0.0
					CHANNELS 6 Xposition Yposition Zposition Zrotation Xrotation Yrotation 
					JOINT Toes_R
					{
						OFFSET -11.7543 0.0 0.0
						CHANNELS 6 Xposition Yposition Zposition Zrotation Xrotation Yrotation 
						End Site
						{
							OFFSET 0.0 0.0 0.0
						}
					}
				}
			}
		}
	}
}
MOTION
Frames:	7
Frame Time:	0.0333333
0.000000 0.000000 0.000000 0.000000 0.000000 -0.000000 -0.205992 92.990500 0.803455 89.445100 5.610870 3.158950 15.735700 0.000005 -0.000001 63.392000 86.978000 -55.047000 8.984550 -0.406207 -0.000000 -2.059270 -3.418870 16.631500 16.377300 -0.000001 -0.000001 2.707490 2.178830 4.547060 6.456720 -0.000001 -0.000000 -12.337000 -2.587190 13.748600 12.994200 -0.242716 4.980390 -88.437600 -3.232340 -64.185000 5.348090 -0.000007 -0.000001 -61.324100 -58.453100 -103.060000 24.328600 0.000019 0.000005 0.317447 12.200800 -1.501490 22.291600 -0.000001 0.000005 45.567900 4.680400 13.507900 12.994500 -0.242716 -4.980390 88.345500 4.582340 -70.122400 -5.348130 -0.000001 -0.000004 -60.233200 7.665360 -6.693140 -24.328900 0.000322 -0.000009 1.358690 5.790410 -13.239200 -22.291500 -0.000108 -0.000004 6.645910 5.256220 1.267920 -2.192480 -6.469440 -0.000000 -173.825000 -9.551020 1.414120 39.081100 -0.000007 -0.000012 0.004759 -0.017669 15.074600 40.985400 -0.000006 -0.000013 0.512410 21.116800 -68.560000 11.754300 -0.000000 0.000003 -0.001301 0.187224 -8.981720 -2.192510 6.469440 -0.000001 175.359000 10.971000 -175.698000 -39.081100 -0.002282 -0.040193 0.026497 -0.102534 12.729400 -40.985400 0.000008 0.000006 -4.810200 3.351430 -68.727600 -11.754300 -0.000006 -0.000006 -0.011573 0.282706 -5.084430
0.000000 0.000000 0.000000 0.000000 0.000000 -0.000000 -0.214658 92.996400 0.788747 89.441000 5.601130 3.145510 15.735700 0.000005 -0.000001 63.585400 86.993800 -55.274600 8.984550 -0.406207 -0.000000 -2.082380 -3.385340 16.563000 16.377300 -0.000001 -0.000001 2.784970 2.200520 4.422110 6.456720 -0.000001 -0.000000 -12.332600 -2.621800 13.767900 12.994200 -0.242716 4.980390 -88.456600 -3.191600 -64.175200 5.348090 -0.000007 -0.000001 -61.474600 -58.364500 -103.121000 24.328600 0.000019 0.000005 0.342202 12.067600 -1.636140 22.291600 -0.000001 0.000005 45.610600 4.672250 13.653000 12.994500 -0.242716 -4.980390 88.316100 4.646410 -70.053500 -5.348130 -0.000001 -0.000004 -60.108100 7.705060 -6.586520 -24.328900 0.000322 -0.000009 1.331980 5.669290 -13.254700 -22.291500 -0.000108 -0.000004 6.555780 5.257680 1.228720 -2.192480 -6.469440 -0.000000 -173.812000 -9.584200 1.417410 39.081100 -0.000007 -0.000012 0.004522 -0.016839 15.034400 40.985400 -0.000006 -0.000013 0.495921 21.134100 -68.572000 11.754300 -0.000000 0.000003 -0.001532 0.190327 -8.855600 -2.192510 6.469440 -0.000001 175.382000 10.902000 -175.693000 -39.081100 -0.002282 -0.040193 0.026133 -0.101412 12.670400 -40.985400 0.000008 0.000006 -4.803440 3.298960 -68.710400 -11.754300 -0.000006 -0.000006 -0.011445 0.281806 -5.121270
0.000000 0.000000 0.000000 0.000000 0.000000 -0.000000 -0.218367 92.987600 0.779371 89.438700 5.590280 3.140700 15.735700 0.000005 -0.000001 63.601600 86.993000 -55.324500 8.984550 -0.406207 -0.000000 -2.081920 -3.381620 16.495500 16.377300 -0.000001 -0.000001 2.889020 2.248290 4.294550 6.456720 -0.000001 -0.000000 -12.283300 -2.573010 13.796900 12.994200 -0.242716 4.980390 -88.482900 -3.126220 -64.097300 5.348090 -0.000007 -0.000001 -61.450000 -58.253400 -103.038000 24.328600 0.000019 0.000005 0.372232 12.134300 -1.770040 22.291600 -0.000001 0.000005 45.559500 4.672240 13.653100 12.994500 -0.242716 -4.980390 88.314300 4.651420 -70.054000 -5.348130 -0.000001 -0.000004 -60.121200 7.677850 -6.477430 -24.328900 0.000322 -0.000009 1.323310 5.584040 -13.364900 -22.291500 -0.000108 -0.000004 6.539710 5.256820 1.251810 -2.192480 -6.469440 -0.000000 -173.835000 -9.483860 1.338350 39.081100 -0.000007 -0.000012 0.005068 -0.018726 15.145500 40.985400 -0.000006 -0.000013 0.501234 21.009800 -68.578800 11.754300 -0.000000 0.000003 -0.001519 0.190150 -8.862810 -2.192510 6.469440 -0.000001 175.386000 10.944200 -175.761000 -39.081100 -0.002282 -0.040193 0.027972 -0.108582 12.784200 -40.985400 0.000008 0.000006 -4.714790 3.356450 -68.788800 -11.754300 -0.000006 -0.000006 -0.011558 0.282599 -5.088790
0.000000 0.000000 0.000000 0.000000 0.000000 -0.000000 -0.223622 93.000500 0.765956 89.428900 5.592300 3.172680 15.735700 0.000005 -0.000001 63.658700 86.984000 -55.425500 8.984550 -0.406207 -0.000000 -2.065060 -3.379340 16.408200 16.377300 -0.000001 -0.000001 2.963840 2.303550 4.124890 6.456720 -0.000001 -0.000000 -12.189500 -2.534880 13.858000 12.994200 -0.242716 4.980390 -88.521300 -3.034310 -64.002400 5.348090 -0.000007 -0.000001 -61.106400 -58.104800 -102.741000 24.328600 0.000019 0.000005 0.403817 12.204200 -1.909310 22.291600 -0.000001 0.000005 45.705400 4.673530 13.630100 12.994500 -0.242716 -4.980390 88.303700 4.683590 -70.065400 -5.348130 -0.000001 -0.000004 -60.234800 7.424920 -6.295910 -24.328900 0.000322 -0.000009 1.278180 5.306850 -13.573900 -22.291500 -0.000108 -0.000004 6.594430 5.259240 1.187570 -2.192480 -6.469440 -0.000000 -173.795000 -9.557160 1.426850 39.081100 -0.000007 -0.000012 0.004345 -0.016186 15.028800 40.985400 -0.000006 -0.000013 0.481037 21.115500 -68.554900 11.754300 -0.000000 0.000003 -0.001419 0.188817 -8.916980 -2.192510 6.469440 -0.000001 175.383000 10.916900 -175.687000 -39.081100 -0.002282 -0.040193 0.025629 -0.099047 12.685300 -40.985400 0.000008 0.000006 -4.886170 3.333600 -68.729900 -11.754300 -0.000006 -0.000006 -0.012112 0.286465 -4.930490
0.000000 0.000000 0.000000 0.000000 0.000000 -0.000000 -0.231166 92.992600 0.746912 89.425900 5.613940 3.170920 15.735700 0.000005 -0.000001 63.922000 86.995000 -55.729000 8.984550 -0.406207 -0.000000 -2.077070 -3.342190 16.328000 16.377300 -0.000001 -0.000001 3.009900 2.309170 3.962980 6.456720 -0.000001 -0.000000 -12.058900 -2.505550 13.763300 12.994200 -0.242716 4.980390 -88.562000 -2.947630 -63.979600 5.348090 -0.000007 -0.000001 -61.032700 -57.920500 -102.592000 24.328600 0.000019 0.000005 0.445994 12.266100 -2.098160 22.291600 -0.000001 0.000005 45.835600 4.684290 13.438700 12.994500 -0.242716 -4.980390 88.310000 4.649900 -70.001300 -5.348130 -0.000001 -0.000004 -60.462800 7.091930 -6.155050 -24.328900 0.000322 -0.000009 1.276990 5.221350 -13.774400 -22.291500 -0.000108 -0.000004 6.573330 5.262900 1.089430 -2.192480 -6.469440 -0.000000 -173.797000 -9.592420 1.335550 39.081100 -0.000007 -0.000012 0.004501 -0.016617 15.156400 40.985400 -0.000006 -0.000013 0.499162 21.105100 -68.580300 11.754300 -0.000000 0.000003 -0.001519 0.190159 -8.862430 -2.192510 6.469440 -0.000001 175.411000 10.910000 -175.756000 -39.081100 -0.002282 -0.040193 0.027465 -0.106358 12.783300 -40.985400 0.000008 0.000006 -4.764990 3.315000 -68.762900 -11.754300 -0.000006 -0.000006 -0.011454 0.281867 -5.118760
0.000000 0.000000 0.000000 0.000000 0.000000 -0.000000 -0.243311 93.000300 0.725466 89.427200 5.625000 3.143090 15.735700 0.000005 -0.000001 63.887300 86.997400 -55.730900 8.984550 -0.406207 -0.000000 -2.084640 -3.340770 16.254600 16.377300 -0.000001 -0.000001 3.062620 2.333030 3.831390 6.456720 -0.000001 -0.000000 -12.041700 -2.418410 13.601200 12.994200 -0.242716 4.980390 -88.610700 -2.840590 -63.923100 5.348090 -0.000007 -0.000001 -60.999800 -57.806300 -102.545000 24.328600 0.000019 0.000005 0.442901 12.394000 -2.062430 22.291600 -0.000001 0.000005 45.712300 4.697380 13.204500 12.994500 -0.242716 -4.980390 88.316300 4.631960 -69.998500 -5.348130 -0.000001 -0.000004 -60.636300 7.086100 -6.047830 -24.328900 0.000322 -0.000009 1.237570 4.979340 -13.987900 -22.291500 -0.000108 -0.000004 6.470620 5.263750 1.066570 -2.192480 -6.469440 -0.000000 -173.795000 -9.581880 1.322810 39.081100 -0.000007 -0.000012 0.004460 -0.016539 15.092700 40.985400 -0.000006 -0.000013 0.480733 21.142700 -68.550800 11.754300 -0.000000 0.000003 -0.001583 0.190991 -8.828590 -2.192510 6.469440 -0.000001 175.421000 10.904800 -175.787000 -39.081100 -0.002282 -0.040193 0.026554 -0.102528 12.760500 -40.985400 0.000008 0.000006 -4.866650 3.277440 -68.716300 -11.754300 -0.000006 -0.000006 -0.011443 0.281792 -5.121850
0.000000 0.000000 0.000000 0.000000 0.000000 -0.000000 -0.264762 93.007700 0.692982 89.431500 5.657130 3.118390 15.735700 0.000005 -0.000001 64.083900 87.003600 -55.981700 8.984550 -0.406207 -0.000000 -2.091010 -3.312670 16.146600 16.377300 -0.000001 -0.000001 3.083250 2.383600 3.695320 6.456720 -0.000001 -0.000000 -12.103100 -2.400520 13.532300 12.994200 -0.242716 4.980390 -88.629700 -2.799390 -63.903900 5.348090 -0.000007 -0.000001 -61.315400 -57.697500 -102.822000 24.328600 0.000019 0.000005 0.431224 12.404000 -2.006520 22.291600 -0.000001 0.000005 45.768000 4.693430 13.275400 12.994500 -0.242716 -4.980390 88.301400 4.667700 -69.977800 -5.348130 -0.000001 -0.000004 -60.723900 7.358540 -5.972610 -24.328900 0.000322 -0.000009 1.192820 4.754920 -14.111900 -22.291500 -0.000108 -0.000004 6.370710 5.266150 1.002100 -2.192480 -6.469440 -0.000000 -173.801000 -9.533410 1.297310 39.081100 -0.000007 -0.000012 0.004976 -0.018514 15.044700 40.985400 -0.000006 -0.000013 0.450404 21.122800 -68.536100 11.754300 -0.000000 0.000003 -0.001727 0.192868 -8.752270 -2.192510 6.469440 -0.000001 175.432000 10.880200 -175.823000 -39.081100 -0.002282 -0.040193 0.026403 -0.101907 12.755200 -40.985400 0.000008 0.000006 -4.914040 3.280520 -68.746600 -11.754300 -0.000006 -0.000006 -0.011748 0.283933 -5.034160
